<svg class="img-fluid" id="outputsvg" xmlns="http://www.w3.org/2000/svg" style="transform: matrix(3.71293, 0, 0, 3.71293, -17.55, 140.53); transform-origin: 0% 0%; cursor: move; transition: none 0s ease 0s;" width="147" height="114" viewBox="0 0 1470 1140"><g id="l1Hpgc9mSzh0qF4lsLumjhM" fill="rgb(37,60,136)" style="transform: none; transform-origin: 50% 50%;"><g style="transform: none;"><path id="pjWsphJ5g" d="M 45 1118 c -26 -15 -36 -31 -25 -42 5 -5 18 -1 31 8 30 20 73 21 90 0 20 -24 -1 -48 -51 -56 -53 -9 -70 -23 -70 -59 0 -35 32 -59 81 -59 43 0 93 32 66 43 -9 3 -19 2 -22 -3 -11 -18 -82 -12 -89 7 -9 23 13 39 64 47 38 6 70 35 70 64 0 7 -11 24 -25 37 -27 27 -84 33 -120 13 z "></path><path id="p6mKAweLI" d="M 692 1116 c -73 -34 -69 -164 7 -196 47 -19 140 5 115 30 -7 7 -20 7 -42 -1 -88 -30 -144 94 -61 137 24 12 37 13 62 5 21 -8 34 -8 41 -1 29 29 -68 50 -122 26 z "></path><path id="pTcY5Aj1w" d="M1245.4454104357108 1020.7175100894349 C 1245.4454104357108 1079.9522581315118 1197.4261594126265 1127.971509154596 1138.1914113705495 1127.971509154596 1078.9566633284726 1127.971509154596 1030.9374123053883 1079.9522581315118 1030.9374123053883 1020.7175100894349 1030.9374123053883 961.482762047358 1078.9566633284726 913.4635110242737 1138.1914113705495 913.4635110242737 1197.4261594126265 913.4635110242737 1245.4454104357108 961.482762047358 1245.4454104357108 1020.7175100894349 Z M1095.0 1121.0  M1216.8923411794244 1020.1416384714296 C 1216.8923411794244 976.965157201938 1181.8908874566794 941.9637034791929 1138.7144061871877 941.9637034791929 1095.537924917696 941.9637034791929 1060.536471194951 976.965157201938 1060.536471194951 1020.1416384714296 1060.536471194951 1063.3181197409212 1095.537924917696 1098.3195734636663 1138.7144061871877 1098.3195734636663 1181.8908874566794 1098.3195734636663 1216.8923411794244 1063.3181197409212 1216.8923411794244 1020.1416384714296 Z M1190.0 1080.0 "></path><path id="p5VLkjQG7" d="M 230 1016 l 0 -104 73 1 c 57 2 72 5 72 17 0 11 -14 16 -57 18 -54 3 -58 5 -58 27 0 24 3 25 55 25 48 0 55 2 55 20 0 18 -7 20 -55 20 -52 0 -55 1 -55 25 0 24 3 25 60 25 47 0 60 3 60 15 0 12 -15 15 -75 15 l -75 0 0 -104 z "></path><path id="pEK6fj1YA" d="M 422 1018 c 2 -67 7 -103 15 -105 8 -3 13 12 15 44 l 3 48 53 3 52 3 0 -30 c 0 -43 0 -44 12 -58 21 -25 28 0 28 98 0 92 -1 99 -20 99 -13 0 -19 -6 -18 -17 5 -59 1 -63 -57 -63 l -55 0 0 40 c 0 29 -4 40 -15 40 -13 0 -15 -16 -13 -102 z "></path><path id="pdz94z3VT" d="M 910 1035 l 0 -85 -36 0 c -28 0 -35 -3 -32 -17 3 -15 15 -18 83 -18 67 1 80 3 83 18 3 13 -4 17 -32 17 l -36 0 0 85 c 0 69 -3 85 -15 85 -12 0 -15 -16 -15 -85 z "></path><path id="px3d0WiPB" d="M 1282 1018 l 3 -103 63 1 c 45 1 68 7 82 19 27 24 26 73 -2 102 l -22 23 29 30 c 28 29 28 30 6 30 -13 0 -33 -13 -48 -30 -15 -18 -34 -30 -49 -30 -20 0 -24 5 -24 30 0 24 -4 30 -20 30 -20 0 -21 -5 -18 -102 z  m 129 -14 c 21 -25 -1 -49 -50 -52 -41 -3 -41 -3 -41 32 0 35 1 36 39 36 23 0 44 -6 52 -16 z "></path><path id="p17SB7h81W" d="M 290 780 c 0 -52 -14 -57 -100 -36 -37 9 -71 16 -74 16 -3 0 -6 -16 -6 -35 0 -32 3 -35 43 -45 23 -6 62 -17 87 -23 l 45 -13 3 -78 c 2 -44 -1 -83 -6 -88 -5 -5 -44 0 -91 10 l -81 20 2 -172 3 -171 50 -12 c 364 -92 581 -143 592 -139 7 3 13 21 13 41 0 33 -2 35 -32 35 -18 0 -145 29 -283 63 l -250 63 0 95 0 94 30 -3 c 47 -5 55 -18 55 -88 l 0 -63 38 -10 c 134 -33 424 -91 432 -86 5 3 10 19 10 34 l 0 27 -195 44 -195 43 0 33 c 0 22 4 32 13 29 55 -19 351 -86 363 -81 8 3 14 19 14 40 0 29 -3 34 -22 33 -25 -1 -333 70 -358 83 -17 8 -26 145 -11 169 7 11 38 5 171 -28 89 -23 175 -41 191 -41 26 0 29 3 29 33 l 0 32 -163 39 c -239 58 -227 53 -227 81 l 0 25 195 0 195 0 0 35 0 35 -240 0 -240 0 0 -40 z "></path></g></g><g id="l6FoTiFX1bPsCJI1050naXn" fill="rgb(91,135,229)" style="transform: none; transform-origin: 50% 50%;"><g style="transform: none;"><path id="p9q2PeMpX" d="M 740 785 l 0 -35 193 -2 c 187 -3 192 -4 195 -24 3 -19 -12 -25 -192 -69 l -196 -47 0 -34 c 0 -19 5 -34 12 -34 10 0 91 20 253 61 22 6 55 15 74 21 23 7 35 7 40 -1 4 -5 6 -47 6 -93 l -1 -82 -29 -7 c -83 -20 -332 -82 -342 -85 -8 -2 -13 -19 -13 -40 0 -25 4 -35 12 -31 7 2 91 24 185 48 184 46 202 45 189 -5 -4 -16 -15 -27 -29 -30 -12 -3 -71 -16 -132 -30 -60 -13 -136 -30 -167 -36 -57 -11 -58 -12 -58 -46 0 -29 3 -34 18 -31 9 3 73 17 142 32 247 52 305 67 312 78 4 7 8 40 8 74 l 0 62 43 11 c 23 6 56 14 72 18 l 30 8 2 149 c 2 83 -1 156 -5 162 -6 10 -20 10 -66 -2 -31 -8 -61 -15 -66 -15 -5 0 -10 19 -12 43 l -3 42 -237 3 -238 2 0 -35 z  m 536 -170 c 3 -25 3 -65 0 -90 -6 -39 -10 -45 -32 -45 -24 0 -24 2 -24 84 0 83 4 93 37 95 7 1 15 -19 19 -44 z "></path><path id="pYCRpg5pp" d="M 1115 174 c -116 -30 -247 -62 -292 -72 l -83 -17 0 -38 c 0 -34 2 -38 21 -32 23 8 470 121 539 137 56 13 70 24 70 54 0 33 -9 32 -255 -32 z "></path></g></g></svg>