<?xml version="1.0" standalone="yes"?>
<svg xmlns="http://www.w3.org/2000/svg" width="147" height="114">
<path style="fill:#f7f8fc; stroke:none;" d="M0 0L0 114L147 114L146.222 113.278L145.694 113.222L144.889 112.944L143.972 112.694L142 111.667L140 109.972L138 108.111L136 106.722L135.056 106.333L133.5 106.028L132 106L132 113L128 113L128 91L133 91L135 91L136 91L138 91.0278L139 91.1111L141 91.7222L142.972 93.1111L143.889 94.0278L144.667 95L145.278 96L145.667 97L145.861 99L145.278 101L143.944 102.889L143.028 103.694L142.5 104.222L141 105L141.778 106.5L142.278 107.056L143.75 108.944L144.528 109.944L146 112L146.722 111.222L146.75 110.694L146.944 109.889L146.972 108.972L147 107L147 105L147 102L147 80L147 0L74 0L74.7778 0.75L75.3056 0.833336L76.1111 1.16666L77.0278 1.36111L78 1.63889L79 1.86111L81 2.36111L82 2.63889L84 3.13889L85 3.36111L86 3.63889L87 3.86111L88 4.13889L89 4.36111L91 4.86111L92 5.13889L93 5.36111L94 5.63889L95 5.86111L96 6.13889L97 6.36111L99 6.86111L100 7.13889L101 7.36111L102 7.63889L103 7.86111L104 8.13889L105 8.36111L106 8.63889L107 8.86111L108 9.13889L109 9.36111L110 9.63889L111 9.86111L112 10.1389L113 10.3611L114 10.6389L115 10.8611L116 11.1389L118 11.6389L119 11.8611L120 12.1389L121 12.3611L122 12.6389L123 12.8611L125 13.3611L126 13.6389L127 13.8611L128 14.1389L129 14.3611L130 14.6389L131 14.8611L132 15.1389L133.944 15.6111L134.944 15.7778L135.5 15.9167L137 16L137 24L135.5 23.9167L134.944 23.7778L133.944 23.6111L132 23.1389L131 22.8611L130 22.6389L129 22.3611L128 22.1389L127 21.8611L126 21.6389L125 21.3611L123 20.8611L122 20.6389L121 20.3611L120 20.1389L119 19.8611L118 19.6389L117 19.3611L116 19.1389L115 18.8611L114 18.6389L113 18.3611L112 18.1389L111 17.8611L109 17.3611L108 17.1389L107 16.8611L106 16.6389L105 16.3611L104 16.1389L103 15.8611L102 15.6389L101 15.3611L100 15.1389L99 14.8611L97 14.3611L96 14.1389L95 13.8611L94 13.6389L93 13.3611L92 13.1389L91 12.8611L90 12.6389L89 12.3611L88 12.1389L87 11.8611L86 11.6389L85 11.3611L84 11.1389L83 10.8611L81 10.3611L80 10.1389L78 9.63889L77 9.38889L75 9.11111L74 9.11111L72 9.38889L70 9.86111L69 10.1389L68 10.3611L66 10.8611L65 11.1389L64 11.3611L63 11.6389L62 11.8611L61 12.1389L60 12.3611L59 12.6389L58 12.8611L57 13.1389L56 13.3611L55 13.6389L54 13.8611L53 14.1389L52 14.3611L50 14.8611L49 15.1389L48 15.3611L47 15.6389L46 15.8611L45 16.1389L44 16.3611L43 16.6389L42 16.8611L41 17.1389L40 17.3611L39 17.6389L38 17.8611L37 18.1389L36 18.3611L35 18.6389L34 18.8611L33 19.1389L32 19.3611L30 19.8611L29 20.1389L28 20.3611L27 20.6389L26 20.8611L25 21.1389L24.0556 21.3611L22.5 21.75L21 22L21 40L23.0556 39.9167L24.9444 39.6111L26.5 39.25L28 39L28 25L29 24L30.5 23.9722L32.0556 23.7778L33 23.6111L35 23.1389L36 22.8611L38 22.3889L40 22L42 21.6111L44 21.1944L46 20.8056L47 20.6111L49 20.1389L50 19.8611L51 19.6389L53 19.1389L54 18.8611L56 18.3889L57 18.1944L59 17.8056L61 17.3889L62 17.1944L64 16.8056L66 16.3056L68 15.6944L69 15.4167L70 15.1944L71.9167 14.8889L72.7778 14.8333L73.6111 14.7778L74.3889 14.8333L75.2222 14.8889L77.0278 15.1944L78 15.3889L79 15.6111L80 15.8056L82 16.1944L83 16.3889L84 16.6111L85 16.8056L87 17.1944L88 17.3889L89 17.6111L91 18L93 18.4167L94 18.6944L96 19.3056L98 19.8056L100 20.1944L102 20.6111L104 20.9444L105 21.0556L107 21.3889L108 21.6389L110 22.1389L111 22.3611L113 22.8611L115 23.3611L116 23.6111L117.944 23.9167L119.5 24L121 24L122 25L122 39L123 40L124.5 40.0833L126.056 40.4167L127 40.6944L128 41L130 41.5833L131 41.8056L133 42.1944L134.944 42.6111L135.5 42.75L137 43L137 76L134.944 75.9167L133 75.6111L131 75.1389L130 74.8611L129 74.6389L128 74.3611L127 74.1389L126 73.8611L125.056 73.6389L123.5 73.25L122 73L122 83L28 83L28 73L26.5 73.0833L24.9444 73.4167L24 73.6944L23 74L21 74.5833L19 75L18 75.1944L17 75.3889L15 75.8611L14.0556 76.1389L13.0556 76.3889L11 77L10.4167 74.9444L10.0833 73L10.0278 72.0556L10 71.0556L10 69L11.5 68.5556L12.0556 68.3333L13.0556 68L15 67.4167L17 67L18 66.8056L19 66.6111L21 66.1389L22 65.8611L23 65.6111L24 65.3056L25.9444 64.6667L26.5 64.4444L28 64L28 47L26.5 47.25L25.9444 47.4167L24.9444 47.6944L24 48L22 48.6111L20 49.1389L18 49.6111L17 49.8056L15 50.1944L13.0556 50.6111L12.5 50.75L11 51L11 16L12.5 15.75L14.0556 15.3611L15 15.1389L16 14.8611L17 14.6389L18 14.3611L19 14.1389L20 13.8611L22 13.3611L23 13.1389L24 12.8611L26 12.3611L27 12.1389L28 11.8611L29 11.6389L30 11.3611L31 11.1389L32 10.8611L34 10.3611L35 10.1389L36 9.86111L37 9.63889L38 9.36111L39 9.13889L40 8.86111L42 8.38889L43 8.19444L44 8L46 7.58334L48 7L50 6.38889L52 5.86111L53 5.63889L55 5.13889L56 4.86111L58 4.38889L59 4.19444L61 3.80556L62 3.61111L64 3.13889L65 2.86111L67 2.36111L68 2.13889L69 1.86111L69.9444 1.63889L71.5 1.25L73 1L72.2222 0.277779L71.6944 0.25L70.8889 0.0555573L69.9722 0.0277786L68 0L67 0L65 0L52 0L0 0z"/>
<path style="fill:#5d88df; stroke:none;" d="M73 0L73.5833 2.05556L73.7778 3.05556L73.9167 4L74 5.94444L74 6.94444L74 9L75.5 9.25L77.0556 9.63889L78 9.86111L79 10.1389L80 10.3611L82 10.8611L83 11.1389L84 11.3611L85 11.6389L86 11.8611L87 12.1389L88 12.3611L89 12.6389L90 12.8611L91 13.1389L92 13.3611L93 13.6389L94 13.8611L95 14.1389L96 14.3611L98 14.8611L99 15.1389L100 15.3611L101 15.6389L102 15.8611L103 16.1389L104 16.3611L105 16.6389L106 16.8611L107 17.1389L108 17.3611L109 17.6389L110 17.8611L111 18.1389L112 18.3611L113 18.6389L114 18.8611L115 19.1389L116 19.3611L117 19.6389L118 19.8611L120 20.3611L121 20.6389L122 20.8611L124 21.3611L125 21.6389L126 21.8611L127 22.1389L128 22.3611L129 22.6389L130 22.8611L131 23.1389L133 23.6111L133.944 23.7778L135.5 23.9722L137 24L137 16L135.5 15.75L133.944 15.3611L133 15.1389L132 14.8611L131 14.6389L130 14.3611L129 14.1389L127 13.6389L126 13.3611L125 13.1389L124 12.8611L123 12.6389L122 12.3611L120 11.8611L119 11.6389L118 11.3611L117 11.1389L116 10.8611L115 10.6389L114 10.3611L113 10.1389L112 9.86111L111 9.63889L110 9.36111L109 9.13889L108 8.86111L107 8.63889L106 8.36111L105 8.13889L104 7.86111L102 7.36111L101 7.13889L100 6.86111L99 6.63889L97 6.13889L96 5.86111L95 5.63889L94 5.36111L93 5.13889L92 4.86111L91 4.63889L90 4.36111L89 4.13889L88 3.86111L87 3.63889L86 3.36111L85 3.13889L84 2.86111L83 2.63889L82 2.36111L80 1.86111L79 1.63889L78 1.36111L77 1.13889L76.0556 0.861115L75.0556 0.611115L73 0M70.6667 1.33334L70.6667 1.66666L71.3333 1.66666L71.3333 1.33334L70.6667 1.33334z"/>
<path style="fill:#2d438a; stroke:none;" d="M11 17L11 51L13.0556 50.3889L14.0556 50.1389L15 49.8611L17 49.3889L18 49.1944L20 48.8056L21 48.6111L22 48.3611L23 48.1389L24 47.8611L25.9444 47.3889L26.9444 47.2222L27.5 47.0833L29 47L29 64L28 65L26.5 65.0278L24.9444 65.2222L24 65.4167L23 65.6944L21 66.3056L20 66.6111L19 66.8611L18 67.1389L16 67.6111L15.0556 67.7778L13.5 67.9722L12 68L11 69L11 76L12.5 75.9722L14.0556 75.7778L15 75.6111L17 75.1389L18 74.8611L19 74.6111L21 74L22 73.6944L24 73.1944L24.9444 73.0278L25.9444 72.7778L26.5 72.7222L28 72L28.5833 74.0556L28.7778 75.0556L28.9167 76L29 78L29 78.9444L29 79.9444L29 82L74 82L74 75L38 75L38 70L39 69L41.0556 68.9167L43 68.6111L45 68.1389L46 67.8611L47 67.6389L48 67.3611L49 67.1389L50 66.8611L51 66.6389L52 66.3611L53 66.1389L54 65.8611L55 65.6389L57 65.1389L58 64.8611L59 64.6389L60 64.3611L61 64.1389L62 63.8611L63 63.6389L64 63.3611L65 63.1389L67 62.6389L68 62.3611L69 62.1389L70 61.8611L70.9444 61.6389L72.5 61.25L74 61L74 54L71.9444 54.0278L70.9444 54.0833L69 54.3889L67 54.8611L66 55.1389L64 55.6111L63 55.8056L61 56.1944L60 56.4167L59 56.6944L57 57.3056L56 57.6111L54 58.1389L53 58.3611L52 58.6389L51 58.8611L50 59.1389L48 59.6389L47 59.8611L46 60.1389L44 60.6389L43 60.8611L42 61.1389L41.0556 61.3611L39.5 61.75L38 62L38 44L39.5 43.9167L40.0556 43.7778L41.0556 43.5833L43 43L44 42.6944L45 42.4167L46 42.1944L48 41.8056L49 41.6111L51 41.1389L52 40.8611L53 40.6389L55 40.1389L56 39.8611L58 39.3889L59 39.1944L60 39L62 38.5833L64 38L65 37.6944L66 37.3889L68 36.8611L69 36.6389L69.9444 36.3889L70.9444 36.2222L71.5 36.0833L73 36L74 35L74 28L72.5 28.0833L71.9444 28.2222L70.9444 28.3889L70 28.6389L69 28.8611L67 29.3889L66 29.6944L64 30.3056L63 30.6111L62 30.8611L61 31.1389L59 31.6111L58 31.8056L56 32.1944L55 32.3889L53 32.8611L52 33.1389L51 33.3611L50 33.6389L49 33.8611L47 34.3611L46 34.6389L44 35.1389L43 35.3611L42 35.6389L41.0556 35.8333L40.0556 36.1667L39.5 36.25L38 37L38 30L39.5 29.9722L41.0556 29.7778L42 29.6111L44 29.1389L45 28.8611L46 28.6389L48 28.1389L49 27.8611L51 27.3889L52 27.1944L54 26.8056L55 26.6111L56 26.3889L58 26L60 25.5833L61 25.3056L63 24.6944L64 24.4167L65 24.1944L67 23.8056L69 23.3889L70.9444 23.0833L73 23L74 22L74 15L72.5 15.25L70.9444 15.6111L70 15.8056L68 16.1944L67 16.3889L66 16.6111L65 16.8056L63 17.1944L62 17.3889L61 17.6389L60 17.8611L59 18.1389L57 18.6111L56 18.8056L54 19.1944L53 19.4167L52 19.6944L50 20.3056L49 20.5833L47 21L45 21.3889L44 21.6111L43 21.8056L41 22.1944L40 22.3889L39 22.6111L37 23L36 23.1944L34 23.6944L32.0556 24.3056L31.0556 24.5833L30.5 24.75L29 25L29 39L27.5 39.25L25.9444 39.6389L25 39.8611L24.0556 40.1389L23.0556 40.3889L21 41L20.4167 38.9444L20.2222 37.9444L20.0833 37L20 35L20 34L20 33L20 31L20 22L21 21L23.0556 20.9167L25 20.6111L27 20.1389L28 19.8611L29 19.6389L30 19.3611L31 19.1389L32 18.8611L33 18.6389L34 18.3611L35 18.1389L36 17.8611L37 17.6389L38 17.3611L39 17.1389L40 16.8611L42 16.3611L43 16.1389L44 15.8611L45 15.6389L46 15.3611L47 15.1389L48 14.8611L49 14.6389L50 14.3611L51 14.1389L52 13.8611L53 13.6389L54 13.3611L55 13.1389L56 12.8611L57 12.6389L58 12.3611L59 12.1389L60 11.8611L62 11.3611L63 11.1389L64 10.8611L65 10.6389L66 10.3611L67 10.1389L68 9.86111L70 9.38889L71.9444 9.08334L74 9L74 1L72.5 1.25L70.9444 1.63889L70 1.86111L69 2.13889L68 2.36111L67 2.63889L66 2.86111L64 3.36111L63 3.63889L62 3.86111L61 4.13889L60 4.36111L59 4.63889L58 4.86111L56 5.36111L55 5.63889L54 5.86111L53 6.13889L52 6.36111L51 6.63889L50 6.86111L49 7.13889L48 7.36111L47 7.63889L45 8.13889L44 8.36111L43 8.63889L42 8.86111L41 9.13889L39 9.61111L38 9.80556L36 10.1944L35 10.3889L33 10.8611L31 11.3889L30 11.6944L28 12.3056L27 12.5833L26 12.8056L24 13.1944L23 13.3889L21 13.8611L20 14.1389L19 14.3611L18 14.6389L17 14.8611L15 15.3889L13.0556 16.0278L12.5 16.1944L11 17z"/>
<path style="fill:#5d88df; stroke:none;" d="M66.6667 2.33334L66.6667 2.66666L67.3333 2.66666L67 2.33334L66.6667 2.33334M62.6667 3.33334L62.6667 3.66666L63.3333 3.66666L63 3.33334L62.6667 3.33334M57 4L57.7222 4.72222L58.25 4.75L60 5L59.2778 4.27778L58.75 4.25L57 4M53 5L53.7222 5.72222L54.25 5.75L56 6L55.2778 5.27778L54.75 5.25L53 5M49 6L49.7222 6.72222L50.25 6.75L52 7L51.2778 6.27778L50.75 6.25L49 6M46.6667 7.33334L46.6667 7.66666L47.3333 7.66666L47.3333 7.33334L46.6667 7.33334M41 8L41.7222 8.72222L42.25 8.75L44 9L43.2778 8.27778L42.75 8.25L41 8M37 9L37.7222 9.72222L38.25 9.75L40 10L39.2778 9.27778L38.75 9.25L37 9M69 9L69.7222 9.72222L70.25 9.75L72 10L71.2778 9.27778L70.75 9.25L69 9M33.6667 10.3333L33.6667 10.6667L34.3333 10.6667L34.3333 10.3333L33.6667 10.3333M65 10L65.7222 10.7222L66.25 10.75L68 11L67.2778 10.2778L66.75 10.25L65 10M29.6667 11.3333L30 11.6667L30.3333 11.6667L30.3333 11.3333L29.6667 11.3333M61 11L61.7222 11.7222L62.25 11.75L64 12L63.2778 11.2778L62.75 11.25L61 11M25 12L25.7222 12.7222L26.25 12.75L28 13L27.2778 12.2778L26.75 12.25L25 12M57 12L57.7222 12.7222L58.25 12.75L60 13L59.2778 12.2778L58.75 12.25L57 12M21.6667 13.3333L21.6667 13.6667L22.3333 13.6667L22.3333 13.3333L21.6667 13.3333M53 13L53.7222 13.7222L54.25 13.75L56 14L55.2778 13.2778L54.75 13.25L53 13M17.6667 14.3333L17.6667 14.6667L18.3333 14.6667L18.3333 14.3333L17.6667 14.3333M49 14L49.7222 14.7222L50.25 14.75L52 15L51.2778 14.2778L50.75 14.25L49 14M73 14L74 15L73 14M13.6667 15.3333L13.6667 15.6667L14.3333 15.6667L14.3333 15.3333L13.6667 15.3333M45 15L45.7222 15.7222L46.25 15.75L48 16L47.2778 15.2778L46.75 15.25L45 15M68 15L68.7778 15.7222L69.25 15.75L70.0556 15.9444L72 16L71.2222 15.2778L70.75 15.25L69.9444 15.0556L68 15M74 15L74 17.0556L73.9722 18.0556L73.9167 19L73.5833 20.9444L73 23L75.0556 23.0278L76.0556 23.0833L78 23.3889L80 23.8056L82 24.1944L83 24.3889L85 24.8611L86 25.1389L87 25.3611L88 25.6389L89 25.8611L90 26.1389L92 26.6111L93 26.8056L95 27.1944L96 27.3889L97 27.6111L98 27.8056L100 28.1944L101 28.3889L102 28.6111L103 28.8056L105 29.1944L106 29.3889L107 29.6111L108.944 29.9167L111 30L112 31L112 37L110.5 36.25L109.944 36.1667L108.944 35.8333L108 35.6389L107 35.3611L106 35.1389L104 34.6389L103 34.3611L101 33.8611L100 33.6389L99 33.3611L98 33.1389L97 32.8611L95 32.3889L94 32.1944L93 32L91 31.5833L90 31.3056L88 30.6944L87 30.4167L86 30.1944L84 29.8056L83 29.6111L81 29.1389L79 28.6111L77 28L76.0556 27.6944L75.0556 27.4167L74.5 27.25L73 27L73.5833 29.0556L73.7778 30.0556L73.8889 32L73.7778 32.9444L73.5833 33.9444L73 36L74.5 36.0833L75.0556 36.2222L76.0556 36.3889L78 36.8611L79 37.1389L80 37.3611L81 37.6111L82 37.8056L84 38.1944L85 38.3889L87 38.8611L89 39.3889L90 39.6944L92 40.3056L93 40.6111L95 41.1389L96 41.3611L97 41.6111L98 41.8056L100 42.1944L101 42.3889L103 42.8611L104 43.1389L106 43.6389L107 43.8611L108 44.1389L108.944 44.3611L110.5 44.75L112 45L112 62L110.5 61.75L108.944 61.3611L108 61.1389L107 60.8611L105 60.3889L104 60.1944L103 60L101 59.5833L99 59L97 58.3889L95 57.8611L93 57.3889L92 57.1944L90 56.8056L89 56.6111L87 56.1389L85 55.6111L83 55L81 54.4167L79 54L78 53.8056L76 53.3889L74.0556 53.0833L73.0556 53.0278L71 53L71.7222 53.7222L72.25 53.75L74 54L74 56.0556L73.9722 57.0556L73.8889 57.9722L73.3333 59.6667L72.3889 60.6389L71 61L71.7778 61.6944L72.3056 61.6944L73.1111 61.8056L75 61.8056L77 62.0833L79 62.6111L81 63.1389L83 63.6111L84 63.8056L86 64.1944L87 64.3889L89 64.8611L90 65.1389L91 65.3611L92 65.6389L93 65.8611L95 66.3611L96 66.6389L97 66.8611L98 67.1389L99 67.3611L100 67.6389L101 67.8611L103 68.3611L104 68.6389L105 68.8611L106 69.1389L108 69.6111L108.944 69.7778L110.5 69.9722L112 70L112 75L74 75L74 82L29 82L29 73L28.2778 73.7778L28.25 74.3056L28.0556 75.1111L28.0278 76.0278L28 78L28 79.9444L28 83L122 83L122 73L124.056 73.6111L125.056 73.8611L126 74.1389L127 74.3611L129 74.8611L130 75.1389L132 75.6111L133.944 75.9167L134.944 75.9722L137 76L137 43L134.944 42.4167L133 42L131 41.5833L129 41L127 40.4167L126.056 40.2222L124.5 40.0278L123 40L122 39L122 25L121 24L119.5 23.9722L117.944 23.7778L117 23.6111L115 23.1389L114 22.8611L113 22.6389L111 22.1389L109 21.6389L108 21.3889L106 21.0556L105 20.9444L103 20.6111L101 20.1944L100 20L98 19.5833L97 19.3056L95 18.6944L94 18.4167L93 18.1944L91 17.8056L90 17.6111L89 17.3889L88 17.1944L86 16.8056L85 16.6111L84 16.3889L83 16.1944L81 15.8056L80 15.6111L79 15.3889L77.0556 15.0833L76.0556 15.0278L74 15M11 16L12 17L11 16M41 16L41.7222 16.7222L42.25 16.75L44 17L43.2778 16.2778L42.75 16.25L41 16M65.6667 16.3333L66 16.6667L66.3333 16.6667L66.3333 16.3333L65.6667 16.3333M37 17L37.7222 17.7222L38.25 17.75L40 18L39.2778 17.2778L38.75 17.25L37 17M60.6667 17.3333L60.6667 17.6667L61.3333 17.6667L61 17.3333L60.6667 17.3333M33 18L33.7222 18.7222L34.25 18.75L36 19L35.2778 18.2778L34.75 18.25L33 18M55 18L55.7222 18.7222L56.25 18.75L58 19L57.2778 18.2778L56.75 18.25L55 18M29 19L29.7222 19.7222L30.25 19.75L32 20L31.2778 19.2778L30.75 19.25L29 19M51.6667 19.3333L52 19.6667L52.3333 19.6667L52 19.3333L51.6667 19.3333M25 20L25.7222 20.7222L26.25 20.75L28 21L27.2778 20.2778L26.75 20.25L25 20M47 20L47.7222 20.7222L48.25 20.75L50 21L49.2778 20.2778L48.75 20.25L47 20M21 21L21.7222 21.7222L22.25 21.75L24 22L23.2778 21.2778L22.75 21.25L21 21M42 21L42.7222 21.7222L43.25 21.75L45 22L44.2778 21.2778L43.75 21.25L42 21M20 22L20 40L20.7222 39.2222L20.75 38.6944L20.9444 37.8889L20.9722 36.9722L21 35L21 34L21 32L21 29L21 28L21 26L20.9722 25.0278L20.9444 24.1111L20.75 23.3056L20.7222 22.7778L20 22M37 22L37.7222 22.7222L38.25 22.75L40 23L39.2778 22.2778L38.75 22.25L37 22M33.6667 23.3333L33.6667 23.6667L34.3333 23.6667L34.3333 23.3333L33.6667 23.3333M68 23L68.7222 23.7222L69.25 23.75L71 24L70.2778 23.2778L69.75 23.25L68 23z"/>
<path style="fill:#f7f8fc; stroke:none;" d="M38 31L38 36L39.5 35.9167L40.0556 35.7778L41.0556 35.6111L42 35.3611L43 35.1389L45 34.6111L46 34.3056L47 34L49 33.4167L51 33L52 32.8056L53 32.6111L55 32.1389L56 31.8611L57 31.6389L58 31.3611L59 31.1389L60 30.8611L62 30.3611L63 30.1389L64 29.8611L65 29.6389L66 29.3611L67 29.1389L69 28.6389L70 28.3611L72 27.9444L73 27.8611L74 27.8056L75 27.9167L77 28.3333L78 28.6111L80 29.1389L82 29.6111L83 29.8056L85 30.1944L86 30.4167L87 30.6944L89 31.3056L90 31.5833L92 32L93 32.1944L94 32.3889L96 32.8611L97 33.1389L98 33.3611L100 33.8611L101 34.1389L102 34.3611L104 34.8611L105 35.1389L106 35.3611L107 35.6389L108 35.8611L108.944 36.1389L109.944 36.3889L112 37L112 31L111 30L109.5 29.9167L108.944 29.7778L107 29.3889L106 29.1944L104 28.8056L103 28.6111L102 28.3889L101 28.1944L99 27.8056L98 27.6111L97 27.3889L96 27.1944L94 26.8056L93 26.6111L91 26.1389L90 25.8611L88 25.3611L87 25.1389L86 24.8611L84 24.3889L83 24.1944L81 23.8056L79 23.3889L77 23.0833L76 23.0278L74 23.0278L73 23.0833L71 23.3889L70 23.6111L68 24L66 24.4167L65 24.6944L63 25.3056L61 25.8056L60 26L58 26.3889L57 26.6111L56 26.8056L54 27.1944L53 27.3889L52 27.6111L51 27.8056L49 28.1944L48 28.3889L46 28.8611L45 29.1389L43 29.6389L42 29.8611L41.0556 30.1389L40.0556 30.3889L38 31z"/>
<path style="fill:#5d88df; stroke:none;" d="M29 24L29.7222 24.7222L30.25 24.75L32 25L31.2778 24.2778L30.75 24.25L29 24M63 24L63.7222 24.7222L64.25 24.75L66 25L65.2778 24.2778L64.75 24.25L63 24M28 25L28 39L28.7222 38.2222L28.75 37.6944L28.9444 36.8889L28.9722 35.9722L29 35L29 34L29 32L29 30L29 29L28.9722 28.0278L28.9444 27.1111L28.75 26.3056L28.7222 25.7778L28 25M60 25L60.7222 25.7222L61.25 25.75L63 26L62.2778 25.2778L61.75 25.25L60 25M55 26L55.7222 26.7222L56.25 26.75L58 27L57.2778 26.2778L56.75 26.25L55 26M50 27L50.7222 27.7222L51.25 27.75L53 28L52.2778 27.2778L51.75 27.25L50 27M46.6667 28.3333L46.6667 28.6667L47.3333 28.6667L47.3333 28.3333L46.6667 28.3333M69.6667 28.3333L69.6667 28.6667L70.3333 28.6667L70.3333 28.3333L69.6667 28.3333M42.6667 29.3333L42.6667 29.6667L43.3333 29.6667L43 29.3333L42.6667 29.3333M65.6667 29.3333L66 29.6667L66.3333 29.6667L66 29.3333L65.6667 29.3333M38.6667 30.3333L38.6667 30.6667L39.3333 30.6667L39 30.3333L38.6667 30.3333M61 30L61.7222 30.7222L62.25 30.75L64 31L63.2778 30.2778L62.75 30.25L61 30M57 31L57.7222 31.7222L58.25 31.75L60 32L59.2778 31.2778L58.75 31.25L57 31M53.6667 32.3333L54 32.6667L54.3333 32.6667L54.3333 32.3333L53.6667 32.3333M48 33L48.7222 33.7222L49.25 33.75L51 34L50.2778 33.2778L49.75 33.25L48 33M45.6667 34.3333L45.6667 34.6667L46.3333 34.6667L46.3333 34.3333L45.6667 34.3333M41.6667 35.3333L41.6667 35.6667L42.3333 35.6667L42.3333 35.3333L41.6667 35.3333M38 36L39 37L38 36M69.6667 36.3333L69.6667 36.6667L70.3333 36.6667L70.3333 36.3333L69.6667 36.3333z"/>
<path style="fill:#f7f8fc; stroke:none;" d="M39 44L38 45L38 62L40.0556 61.3889L41.0556 61.1389L42 60.8611L44 60.3889L45 60.1944L46 60L48 59.5833L50 59L51 58.6944L52 58.3889L54 57.8611L55 57.6389L56 57.3611L57 57.1389L58 56.8611L60 56.3611L61 56.1389L62 55.8611L63 55.6389L64 55.3611L65 55.1389L66 54.8611L67 54.6389L69 54.1389L70 53.8611L72 53.4167L74 53.3056L76 53.6111L77 53.8056L79 54.1944L80 54.4167L81 54.6944L83 55.3056L84 55.6111L86 56.1389L88 56.6111L89 56.8056L91 57.1944L92 57.3889L93 57.6389L94 57.8611L96 58.3889L97 58.6944L98 59L100 59.5833L102 60L103 60.1944L104 60.3889L105 60.6389L106 60.8611L107 61.1389L108.944 61.6111L109.944 61.7778L110.5 61.9167L112 62L112 45L109.944 44.3889L108.944 44.1389L108 43.8611L107 43.6389L105 43.1389L104 42.8611L102 42.3889L101 42.1944L99 41.8056L98 41.6111L96 41.1389L94 40.6111L93 40.3056L91 39.6944L90 39.3889L89 39.1389L88 38.8611L86 38.3889L84 38L82 37.6111L80 37.1389L78 36.6389L77 36.3889L75 36.0833L73 36.0833L72 36.2222L71 36.3889L69 36.8611L68 37.1389L66 37.6389L65 37.8611L64 38.1389L63 38.3611L62 38.6389L61 38.8611L59 39.3611L58 39.6389L57 39.8611L56 40.1389L55 40.3611L54 40.6389L53 40.8611L52 41.1389L51 41.3611L50 41.6389L49 41.8611L47 42.3611L46 42.6389L45 42.8611L43 43.3611L42.0556 43.6111L41.0556 43.7778L40.5 43.9167L39 44z"/>
<path style="fill:#5d88df; stroke:none;" d="M65.6667 37.3333L65.6667 37.6667L66.3333 37.6667L66.3333 37.3333L65.6667 37.3333M62 38L63 39L62 38M25.6667 39.3333L25.6667 39.6667L26.3333 39.6667L26.3333 39.3333L25.6667 39.3333M57.6667 39.3333L57.6667 39.6667L58.3333 39.6667L58 39.3333L57.6667 39.3333M21.6667 40.3333L21.6667 40.6667L22.3333 40.6667L22.3333 40.3333L21.6667 40.3333M53.6667 40.3333L53.6667 40.6667L54.3333 40.6667L54.3333 40.3333L53.6667 40.3333M49.6667 41.3333L50 41.6667L50.3333 41.6667L50.3333 41.3333L49.6667 41.3333M44 42L44.7222 42.7222L45.25 42.75L47 43L46.2778 42.2778L45.75 42.25L44 42M41.6667 43.3333L41.6667 43.6667L42.3333 43.6667L42.3333 43.3333L41.6667 43.3333M38 44L39 45L38 44M25 47L26 48L25 47M28 47L28 64L28.7222 63.2222L28.75 62.6944L28.9444 61.8889L28.9722 60.9722L29 59L29 57L29 54L29 52L29 51L28.9722 50.0278L28.9444 49.1111L28.75 48.3056L28.7222 47.7778L28 47M21.6667 48.3333L21.6667 48.6667L22.3333 48.6667L22.3333 48.3333L21.6667 48.3333z"/>
<path style="fill:#f7f8fc; stroke:none;" d="M122 48L122 65L123.5 65.25L125 65.6111L125.5 65.75L127 66L127 48L122 48z"/>
<path style="fill:#5d88df; stroke:none;" d="M16 49L16.7222 49.7222L17.25 49.75L19 50L18.2778 49.2778L17.75 49.25L16 49M12.6667 50.3333L13 50.6667L13.3333 50.6667L13 50.3333L12.6667 50.3333M67.6667 54.3333L68 54.6667L68.3333 54.6667L68.3333 54.3333L67.6667 54.3333M63.6667 55.3333L64 55.6667L64.3333 55.6667L64 55.3333L63.6667 55.3333M59 56L60 57L59 56M55.6667 57.3333L56 57.6667L56.3333 57.6667L56 57.3333L55.6667 57.3333M51.6667 58.3333L52 58.6667L52.3333 58.6667L52 58.3333L51.6667 58.3333M48 59L49 60L48 59M43.6667 60.3333L44 60.6667L44.3333 60.6667L44 60.3333L43.6667 60.3333M39.6667 61.3333L40 61.6667L40.3333 61.6667L40 61.3333L39.6667 61.3333z"/>
<path style="fill:#f7f8fc; stroke:none;" d="M38 70L38 74L39 75L112 75L112 70L110.5 69.9167L109.944 69.7778L108.944 69.6111L107 69.1389L106 68.8611L105 68.6389L104 68.3611L103 68.1389L101 67.6389L100 67.3611L99 67.1389L98 66.8611L97 66.6389L96 66.3611L94 65.8611L93 65.6389L92 65.3611L91 65.1389L90 64.8611L88 64.3889L87 64.1944L85 63.8056L84 63.6111L82 63.1389L81 62.8611L80 62.6111L78 62L76 61.5L75 61.4444L73 61.6667L72 61.8611L71 62.1389L69 62.6111L68 62.8056L67 63L65 63.4167L64 63.6944L62 64.3056L61 64.5833L60 64.8056L58 65.1944L57 65.4167L55 66L53 66.5833L52 66.8056L50 67.1944L49 67.3889L47 67.8611L46 68.1389L44 68.6389L43 68.8611L42 69.1389L41.0556 69.3611L39.5 69.75L38 70z"/>
<path style="fill:#5d88df; stroke:none;" d="M67 62L67.7222 62.7222L68.25 62.75L70 63L69.2778 62.2778L68.75 62.25L67 62M63.6667 63.3333L63.6667 63.6667L64.3333 63.6667L64 63.3333L63.6667 63.3333M26.6667 64.3333L27 64.6667L27.3333 64.6667L27 64.3333L26.6667 64.3333M59 64L59.7222 64.7222L60.25 64.75L62 65L61.2778 64.2778L60.75 64.25L59 64M23 65L24 66L23 65M55.6667 65.3333L56 65.6667L56.3333 65.6667L56 65.3333L55.6667 65.3333M19.6667 66.3333L19.6667 66.6667L20.3333 66.6667L20 66.3333L19.6667 66.3333M51 66L51.7222 66.7222L52.25 66.75L54 67L53.2778 66.2778L52.75 66.25L51 66M14 67L14.7222 67.7222L15.25 67.75L17 68L16.2778 67.2778L15.75 67.25L14 67M47.6667 67.3333L48 67.6667L48.3333 67.6667L48 67.3333L47.6667 67.3333M11 68L12 69L11 68M43.6667 68.3333L44 68.6667L44.3333 68.6667L44 68.3333L43.6667 68.3333M10 69L10 76L10.7222 75.2222L10.75 74.6944L10.9444 73.8889L10.9722 72.9722L10.9444 71.1111L10.75 70.3056L10.7222 69.7778L10 69M39.6667 69.3333L40 69.6667L40.3333 69.6667L40 69.3333L39.6667 69.3333M27 72L28 73L27 72M22 73L22.7222 73.7222L23.25 73.75L25 74L24.2778 73.2778L23.75 73.25L22 73M19 74L19.7222 74.7222L20.25 74.75L22 75L21.2778 74.2778L20.75 74.25L19 74M38 74L39 75L38 74M15.6667 75.3333L16 75.6667L16.3333 75.6667L16 75.3333L15.6667 75.3333M11.6667 76.3333L12 76.6667L12.3333 76.6667L12 76.3333L11.6667 76.3333M7 90L7.77778 90.7222L8.30556 90.75L9.11111 90.9444L9.97222 90.9722L10.9444 91L13 91L12.2222 90.2778L11.6944 90.25L10.8889 90.0556L10.0278 90.0278L9.05556 90L7 90M73 90L73.7222 90.7222L74.25 90.75L76 91L75.2778 90.2778L74.75 90.25L73 90M113.667 90.3333L114 90.6667L114.333 90.6667L114.333 90.3333L113.667 90.3333M5 91L6 92L5 91z"/>
<path style="fill:#2d438a; stroke:none;" d="M1 108L1.52778 109.417L2.5 110.583L4.08333 111.722L6 112.528L8 112.917L9 112.972L11 112.972L12 112.917L14 112.528L14.9722 112.139L15.9167 111.722L17.5 110.528L18.5 108.917L18.8889 107L18.6667 105L18.2778 104.028L17.6667 103.083L15.9722 101.5L14 100.5L12 100.056L10 99.75L9 99.5278L7.05556 98.8056L6.5 98.5L5 98L5.77778 96.5278L7.11111 95.2778L9 94.3611L10 94.1944L11.9444 94.4444L13.5 95.0278L15 96L16 96L18 95L17.2222 93.5833L15.8889 92.4444L14 91.5L12 91.0833L10 91L9 91.0278L7 91.25L6 91.5L4.11111 92.5L3.33333 93.25L2.72222 94.0833L2.33333 95.0278L2.11111 96L2.11111 98L2.33333 98.9722L3.33333 100.694L5.02778 101.889L6 102.278L7 102.583L9 102.944L11 103.333L12.8611 104.333L13.5556 105.111L13.9444 106.028L13.9444 106.972L13.5556 107.889L11.9722 109.278L11 109.639L9 109.722L8 109.5L6 108.611L4.05556 107.694L3.05556 107.556L2.5 107.389L1 108z"/>
<path style="fill:#5d88df; stroke:none;" d="M14.6667 91.3333L14.6667 91.6667L15.3333 91.6667L15.3333 91.3333L14.6667 91.3333M22 91L22 113L38 113L37.2222 112.278L36.6944 112.25L35.8889 112.056L34.9722 112.028L34 112L32 112L31 112L29 112L23 112L23 99L23 97L23 96L22.9722 94.0278L22.9444 93.1111L22.75 92.3056L22.7222 91.7778L22 91z"/>
<path style="fill:#2d438a; stroke:none;" d="M23 91L23 112L38 112L38 109L26 109L26 104L37 104L37 100L26 100L26 95L38 95L37.75 93L37.7222 92.4444L37 91L23 91z"/>
<path style="fill:#5d88df; stroke:none;" d="M37 91L38 92L37 91M41 91L41 113L45 113L46 112L46 104L45.2778 104.778L45.25 105.306L45.0556 106.111L45.0278 107.028L45 108.944L45 109.944L45 112L42 112L42 99L42 97L42 96L41.9722 94.0278L41.9444 93.1111L41.75 92.3056L41.7222 91.7778L41 91z"/>
<path style="fill:#2d438a; stroke:none;" d="M42 91L42 112L45 112L45 104L56 104L56 112L60 112L60 91L58 91.25L57.4444 91.2778L56 92L56 101L46 101L45 100L45 91L42 91z"/>
<path style="fill:#5d88df; stroke:none;" d="M45 91L45 100L45.7222 99.2222L45.75 98.6944L45.9444 97.8889L46 96L45.9722 94.0278L45.9444 93.1111L45.75 92.3056L45.7222 91.7778L45 91M56 91L57 92L56 91M68 93L70 92L71 92L70.25 91.3889L69.8056 91.5278L68.75 91.8889L68 93z"/>
<path style="fill:#2d438a; stroke:none;" d="M82 111L82 109L81 108L79.5 108.25L78.9444 108.389L77 108.778L76 108.917L74 108.917L73 108.75L72 108.5L70.0833 107.5L68.5 105.917L67.5 104L67.1667 102L67.5 100L67.9444 99.0278L68.5 98.0833L70.0833 96.4722L71.0278 95.8611L72 95.3056L74 94.6944L75 94.6667L77 95.0278L78 95.2778L78.9444 95.5278L79.9444 95.5278L80.5 95.6389L82 95L82 93L80.5 92.5L79.9444 92.1944L78 91.4722L76 91.0833L74 91.0278L73 91.0833L71 91.4722L69.0278 92.2778L67.25 93.4722L66.4722 94.25L65.8611 95.0833L65.2778 96.0278L64.4722 98L64.25 99L64.0833 100L64 102L64 103L64.0833 105L64.5 107L65.5 108.917L66.25 109.75L68.0278 111.139L70 112.139L71 112.528L73 112.917L75 112.972L76 112.917L78 112.583L78.9444 112.333L79.9444 111.972L80.5 111.806L82 111z"/>
<path style="fill:#5d88df; stroke:none;" d="M78 91L79 92L78 91z"/>
<path style="fill:#2d438a; stroke:none;" d="M84 91L84 95L91 95L91 112L94 112L94 95L101 95L101 91L84 91z"/>
<path style="fill:#5d88df; stroke:none;" d="M109 91L109.722 91.7222L110.25 91.75L112 92L111.278 91.2778L110.75 91.25L109 91z"/>
<path style="fill:#2d438a; stroke:none;" d="M112 91.3889L111 91.6389L110 91.8889L108.028 92.6944L107.083 93.3333L106.25 94.1111L104.861 96L104.278 97L103.472 99L103.083 101L103.056 102L103.222 104L103.722 106L104.111 107L104.639 108L105.306 108.972L106.111 109.917L108 111.5L110 112.5L112 112.917L114 112.972L116 112.778L117 112.583L119 111.889L120.917 110.694L122.5 108.972L123.5 107L123.75 106L123.917 105L124 103L124 102L124 101L123.917 99L123.5 97L122.5 95.0278L120.917 93.25L119.972 92.5L118 91.5L116 91.0833L115 91.0556L114 91.0833L112 91.3889z"/>
<path style="fill:#5d88df; stroke:none;" d="M118 91L119 92L118 91M128 91L129 92L128 91z"/>
<path style="fill:#2d438a; stroke:none;" d="M129 91L128 92L128 112L132 112L132 106L134.056 106.111L135.056 106.333L136.972 107.333L137.917 108.111L139.528 109.944L141 112L146 112L145.222 110.5L144.694 109.944L143.889 108.944L143.028 108.056L142.056 107.056L140 105L141.5 104.639L142.028 104.278L143.667 102.889L144.667 101L144.889 100L144.972 99L144.917 97L144.5 95.0833L143.5 93.5L142.75 92.9167L140.972 92.0278L140 91.6944L139 91.4167L137 91.0833L135 91L133 91L129 91z"/>
<path style="fill:#5d88df; stroke:none;" d="M139 91L139.722 91.7222L140.25 91.75L142 92L141.278 91.2778L140.75 91.25L139 91M3 92L4 93L3 92M16 92L17 93L16 92M80 92L81 93L80 92M83 92L82 94L82 95L83.1389 94.6389L83.3056 94.3056L83.6667 93.7778L83.6944 92.75L83 92M107 92L108 93L107 92M120 92L121 93L120 92M142 92L143 93L142 92M2 93L3 94L2 93M17 93L18 94L17 93M106 93L107 94L106 93M121 93L122 94L121 93M7 94L8 95L7 94M12 94L13 95L12 94M73 94L73.7222 94.7222L74.25 94.75L76 95L75.2778 94.2778L74.75 94.25L73 94M105 94L106 95L105 94M112 94L112.778 94.7222L113.25 94.75L114.056 94.9444L116 95L115.222 94.2778L114.75 94.25L113.944 94.0556L112 94M122 94L123 95L122 94M144 94L145 95L144 94M1 95L1 99L1.72222 98.2222L1.72222 97.7222L1.88889 97L1.72222 95.7778L1 95M14 95L15 96L14 95M16 95L17 96L16 95M26 95L27 96L26 95M65 95L66 96L65 95M71 95L72 96L71 95M78 95L79 96L78 95M81 95L82 96L81 95M90 95L90 113L94 113L93.2778 112.278L92.75 112.25L91 112L91 102L91 100L91 99L90.9722 98.0278L90.9444 97.1111L90.75 96.3056L90.7222 95.7778L90 95M94 95L94 112L94.7222 111.222L94.75 110.694L94.9444 109.889L94.9722 108.972L95 107L95 105L95 102L95 100L95 99L94.9722 98.0278L94.9444 97.1111L94.75 96.3056L94.7222 95.7778L94 95M104.333 95.6667L104.333 96L104.667 96.3333L104.667 95.6667L104.333 95.6667M110 95L111 96L110 95z"/>
<path style="fill:#f7f8fc; stroke:none;" d="M111.028 95.5L109.306 96.5L108.111 98.0833L107.417 100L107.167 102L107.25 103L107.722 104.972L108.639 106.75L109.306 107.5L111.028 108.5L113 108.917L114 108.944L115.972 108.75L116.917 108.5L118.528 107.5L119.722 105.917L120.528 104L120.833 102L120.722 101L120.5 100L119.5 98.0278L117.917 96.3333L116.972 95.7222L115 95.1111L113 95.0833L112 95.25L111.028 95.5z"/>
<path style="fill:#5d88df; stroke:none;" d="M117 95L118 96L117 95z"/>
<path style="fill:#f7f8fc; stroke:none;" d="M132 95L132 101L133 102L135.056 102L137 101.917L138.917 101.5L139.722 101.111L140.528 100.556L142 99L141.528 97.5556L141.167 97L140 95L132 95z"/>
<path style="fill:#5d88df; stroke:none;" d="M140 95L141 96L140 95M145 95L145 102L145.722 101.222L145.75 100.694L145.944 99.8889L145.972 98.9722L145.944 97.1111L145.75 96.3056L145.722 95.7778L145 95M5.33333 96.6667L5.33333 97L5.66667 97.3333L5.66667 96.6667L5.33333 96.6667M64.3333 96.6667L64.3333 97.3333L64.6667 97.3333L64.6667 96.6667L64.3333 96.6667M69 96L70 97L69 96M79.6667 96.3333L79.6667 96.6667L80.3333 96.6667L80.3333 96.3333L79.6667 96.3333M118 96L119 97L118 96M123 96L124 97L123 96M141.333 96.6667L141.333 97L141.667 97.3333L141.667 97L141.333 96.6667M68 97L69 98L68 97M103.333 97.6667L103.333 98.3333L103.667 98.3333L103.667 98L103.333 97.6667M119 97L120 98L119 97M6 98L7 99L6 98M107.333 98.6667L107.333 99.3333L107.667 99.3333L107.667 98.6667L107.333 98.6667M120.333 98.6667L120.333 99L120.667 99.3333L120.667 98.6667L120.333 98.6667M124 98L124 106L124.722 105.222L124.75 104.694L124.944 103.889L125 102L124.972 101.028L124.944 100.111L124.75 99.3056L124.722 98.7778L124 98M8 99L8.77778 99.7222L9.25 99.75L10.0556 99.9444L12 100L11.2222 99.2778L10.75 99.25L9.94444 99.0556L8 99M63 99L63 105L63.7222 104.222L63.75 103.694L63.9444 102.889L63.9444 101.111L63.75 100.306L63.7222 99.7778L63 99M67 99L67 105L67.7222 104.222L67.75 103.694L67.9444 102.889L67.9444 101.111L67.75 100.306L67.7222 99.7778L67 99M141.333 99.6667L141.333 100.333L141.667 100.333L141.667 100L141.333 99.6667M2 100L3 101L2 100M14.6667 100.333L15 100.667L15.3333 100.667L15 100.333L14.6667 100.333M37 100L37 104L37.7222 103.222L37.7222 102.722L37.8889 102L37.7222 100.778L37 100M46 100L46.7778 100.722L47.3056 100.75L48.1111 100.944L49.0278 100.972L51 101L52.9444 101L56 101L55.2222 100.278L54.6944 100.25L53.8889 100.056L52.9722 100.028L51 100L49.0556 100L46 100M3 101L4 102L3 101M16 101L17 102L16 101M106.333 101.667L106.333 102.333L106.667 102.333L106.667 101.667L106.333 101.667M132 101L133 102L132 101M139.667 101.333L139.667 101.667L140.333 101.667L140 101.333L139.667 101.333M6 102L7 103L6 102M17 102L18 103L17 102M144 102L145 103L144 102M9 103L9.77778 103.722L10.25 103.75L11.0556 103.944L13 104L12.2222 103.278L11.75 103.25L10.9444 103.056L9 103M18 103L19 104L18 103M143 103L144 104L143 103M13 104L14 105L13 104M26 104L27 105L26 104M107.333 104.667L107.333 105.333L107.667 105.333L107.667 104.667L107.333 104.667M120.333 104.667L120.333 105L120.667 105.333L120.667 104.667L120.333 104.667M142 104L143 105L142 104M103.333 105.667L103.333 106.333L103.667 106.333L103.667 105.667L103.333 105.667M140 105L141 106L140 105M3 106L4 107L3 106M68 106L69 107L68 106M119 106L120 107L119 106M136 106L137 107L136 106M141 106L142 107L141 106M1 107L2 108L1 107M4 107L5 108L4 107M64 107L65 108L64 107M69 107L70 108L69 107M79.6667 107.333L79.6667 107.667L80.3333 107.667L80.3333 107.333L79.6667 107.333M108 107L109 108L108 107M123 107L124 108L123 107M137 107L138 108L137 107M142 107L143 108L142 107M5 108L6 109L5 108M26 108L26.7778 108.722L27.3056 108.75L28.1111 108.944L29.0278 108.972L31 109L33 109L38 109L37.2222 108.278L36.6944 108.25L35.8889 108.056L34.9722 108.028L33 108L31 108L26 108M71 108L72 109L71 108M78 108L79 109L78 108M81 108L82 109L81 108M104 108L105 109L104 108M110 108L111 109L110 108M117 108L118 109L117 108M138 108L139 109L138 108M143 108L144 109L143 108M1 109L2 110L1 109M7 109L7.77778 109.722L8.30556 109.75L9.11111 109.944L9.97222 109.972L10.9444 110L13 110L12.2222 109.278L11.6944 109.25L10.8889 109.056L10.0278 109.028L9.05556 109L7 109M18 109L19 110L18 109M82.3333 109.667L82.3333 110.333L82.6667 110.333L82.6667 109.667L82.3333 109.667M105 109L106 110L105 109M112 109L112.778 109.722L113.25 109.75L114.056 109.944L116 110L115.222 109.278L114.75 109.25L113.944 109.056L112 109M122 109L123 110L122 109M139 109L140 110L139 109M144 109L145 110L144 109M66 110L67 111L66 110M106 110L107 111L106 110M121 110L122 111L121 110M3 111L4 112L3 111M16 111L17 112L16 111M68 111L69 112L68 111M107 111L108 112L107 111M120 111L121 112L120 111M4.66667 112.333L5 112.667L5.33333 112.667L5.33333 112.333L4.66667 112.333M14 112L15 113L14 112M56 112L56.7778 112.722L57.25 112.75L58.0556 112.944L60 113L59.2222 112.278L58.75 112.25L57.9444 112.056L56 112M69.6667 112.333L70 112.667L70.3333 112.667L70.3333 112.333L69.6667 112.333M78 112L79 113L78 112M109 112L110 113L109 112M117.667 112.333L117.667 112.667L118.333 112.667L118.333 112.333L117.667 112.333M128 112L128.778 112.722L129.25 112.75L130.056 112.944L132 113L131.222 112.278L130.75 112.25L129.944 112.056L128 112M142 112L142.778 112.722L143.306 112.75L144.056 112.944L144.972 112.972L147 113L146.222 112.278L145.694 112.25L144.944 112.056L144.028 112.028L142 112z"/>
</svg>
